<svg xmlns="http://www.w3.org/2000/svg" viewBox="0 0 62.25 62.25"><defs><style>.cls-1{fill:#7289da;}.cls-2{fill:#fff;}</style></defs><title>アセット 5</title><g id="レイヤー_2" data-name="レイヤー 2"><g id="レイヤー_1-2" data-name="レイヤー 1"><rect class="cls-1" width="62.25" height="62.25" rx="2" ry="2"/><path class="cls-2" d="M41.89,47.18s-1.39-1.66-2.55-3.09c5.06-1.43,7-4.56,7-4.56a22.1,22.1,0,0,1-4.44,2.28,27.35,27.35,0,0,1-5.6,1.66,26.79,26.79,0,0,1-10,0,28.93,28.93,0,0,1-5.69-1.66,22.45,22.45,0,0,1-2.82-1.31c-.11-.08-.23-.12-.34-.19s-.12-.08-.16-.08c-.69-.39-1.08-.66-1.08-.66s1.85,3,6.76,4.52c-1.16,1.47-2.59,3.17-2.59,3.17C11.82,47,8.58,41.39,8.58,41.39a51.07,51.07,0,0,1,5.56-22.34A19.12,19.12,0,0,1,25,15l.39.46c-7,2-10.13,5-10.13,5s.85-.47,2.28-1.08A30.42,30.42,0,0,1,26.28,17a3.61,3.61,0,0,1,.65-.08,32.67,32.67,0,0,1,7.81-.07,31.91,31.91,0,0,1,11.63,3.67s-3-2.9-9.62-4.87l.54-.62a19,19,0,0,1,10.82,4,51,51,0,0,1,5.57,22.34s-3.25,5.52-11.79,5.79Z"/><path class="cls-1" d="M38,29.29a4.26,4.26,0,0,0,0,8.5,4.26,4.26,0,0,0,0-8.5Zm-14.1,0a4.26,4.26,0,0,0,0,8.5,4.08,4.08,0,0,0,3.94-4.25A4.05,4.05,0,0,0,23.92,29.29Z"/></g></g></svg>