<svg xmlns="http://www.w3.org/2000/svg" viewBox="0 0 62.25 62.25"><defs><style>.cls-1{fill:#00c300;}.cls-2{fill:#fff;}</style></defs><title>アセット 3</title><g id="レイヤー_2" data-name="レイヤー 2"><g id="レイヤー_1-2" data-name="レイヤー 1"><rect class="cls-1" width="62.25" height="62.25" rx="2" ry="2"/><path class="cls-2" d="M52.94,27.44c0-9.68-9.71-17.56-21.64-17.56S9.67,17.76,9.67,27.44c0,8.68,7.7,16,18.09,17.32.71.15,1.67.47,1.91,1.07a4.43,4.43,0,0,1,.07,2s-.25,1.53-.31,1.86c-.09.54-.43,2.14,1.87,1.16s12.46-7.33,17-12.56h0C51.44,34.8,52.94,31.31,52.94,27.44ZM22.84,33.2h-4.3a1.14,1.14,0,0,1-1.14-1.14V23.47a1.14,1.14,0,1,1,2.27,0v7.46h3.17a1.14,1.14,0,0,1,0,2.27Zm4.44-1.14a1.14,1.14,0,1,1-2.27,0V23.47a1.14,1.14,0,1,1,2.27,0Zm10.35,0a1.13,1.13,0,0,1-.78,1.08,1,1,0,0,1-.36.06,1.14,1.14,0,0,1-.9-.45l-4.41-6v5.31a1.14,1.14,0,1,1-2.27,0V23.47a1.15,1.15,0,0,1,.78-1.08,1.13,1.13,0,0,1,.36-.06,1.12,1.12,0,0,1,.9.46l4.41,6V23.47a1.14,1.14,0,1,1,2.27,0Zm7-5.43a1.14,1.14,0,0,1,0,2.27H41.42v2h3.17a1.14,1.14,0,0,1,0,2.27h-4.3a1.14,1.14,0,0,1-1.14-1.14V27.77h0v-4.3a1.14,1.14,0,0,1,1.14-1.14h4.3a1.14,1.14,0,0,1,0,2.27H41.42v2Z"/></g></g></svg>