<svg xmlns="http://www.w3.org/2000/svg" viewBox="0 0 62.25 62.25"><defs><style>.cls-1{fill:#2297d5;}.cls-2{fill:#fff;}.cls-3{fill:#d2e5f1;}.cls-4{fill:#b5cfe4;}</style></defs><title>アセット 4</title><g id="レイヤー_2" data-name="レイヤー 2"><g id="レイヤー_1-2" data-name="レイヤー 1"><rect class="cls-1" width="62.25" height="62.25" rx="2" ry="2"/><path class="cls-2" d="M49.84,16.21,43.74,47a2.26,2.26,0,0,1-3.2,1.11L26.47,37.28l-5.12-2.47-8.62-2.9s-1.32-.47-1.45-1.49,1.49-1.58,1.49-1.58L47,15.4S49.84,14.16,49.84,16.21Z"/><path class="cls-3" d="M25.39,46.62s-.42,0-.93-1.66-3.11-10.15-3.11-10.15L42,21.67s1.19-.72,1.15,0c0,0,.21.13-.43.73S26.51,37,26.51,37"/><path class="cls-4" d="M31.86,41.42,26.3,46.5a1,1,0,0,1-.91.12l1.06-9.43"/></g></g></svg>