<svg xmlns="http://www.w3.org/2000/svg" viewBox="0 0 62.25 62.25"><defs><style>.cls-1{fill:#1da1f2;}.cls-2{fill:#fff;}</style></defs><title>アセット 2</title><g id="レイヤー_2" data-name="レイヤー 2"><g id="レイヤー_1-2" data-name="レイヤー 1"><rect class="cls-1" width="62.25" height="62.25" rx="2" ry="2"/><path class="cls-2" d="M23.29,48.29c15.94,0,24.65-13.21,24.65-24.66,0-.37,0-.74,0-1.12A17.53,17.53,0,0,0,52.24,18a17.25,17.25,0,0,1-5,1.36,8.74,8.74,0,0,0,3.81-4.79,17.49,17.49,0,0,1-5.51,2.1,8.67,8.67,0,0,0-15,5.93,8.5,8.5,0,0,0,.23,2,24.6,24.6,0,0,1-17.86-9,8.69,8.69,0,0,0,2.68,11.57A8.64,8.64,0,0,1,11.71,26v.12a8.66,8.66,0,0,0,7,8.49,8.91,8.91,0,0,1-3.92.15,8.7,8.7,0,0,0,8.1,6,17.42,17.42,0,0,1-10.76,3.71A17.7,17.7,0,0,1,10,44.4a24.58,24.58,0,0,0,13.28,3.89"/></g></g></svg>